<svg width="158" height="35" viewBox="0 0 158 35" fill="none" xmlns="http://www.w3.org/2000/svg">
<g clip-path="url(#clip0_4161_3338)">
<rect y="1" width="32" height="32" rx="6.52574" fill="#07BFA5"/>
<path fill-rule="evenodd" clip-rule="evenodd" d="M6.511 8.33154C7.07366 8.08361 7.46646 7.52101 7.46646 6.86666C7.46646 5.98301 6.75012 5.26666 5.86646 5.26666C4.98281 5.26666 4.26646 5.98301 4.26646 6.86666C4.26646 7.60414 4.76541 8.22509 5.44416 8.41034C6.1921 13.5698 10.6332 17.5333 15.9999 17.5333C21.3667 17.5333 25.8078 13.5698 26.5557 8.41028C27.2344 8.22496 27.7332 7.60407 27.7332 6.86666C27.7332 5.98301 27.0169 5.26666 26.1332 5.26666C25.2496 5.26666 24.5332 5.98301 24.5332 6.86666C24.5332 7.52108 24.9261 8.08374 25.4889 8.33162C24.7835 12.9382 20.8038 16.4666 15.9999 16.4666C11.1961 16.4666 7.21633 12.9382 6.511 8.33154Z" fill="white"/>
</g>
<path d="M52.216 27.182C50.8813 27.182 49.6853 26.9653 48.628 26.532C47.5707 26.0987 46.7213 25.4573 46.08 24.608C45.456 23.7587 45.1267 22.736 45.092 21.54H49.824C49.8933 22.216 50.1273 22.736 50.526 23.1C50.9247 23.4467 51.4447 23.62 52.086 23.62C52.7447 23.62 53.2647 23.4727 53.646 23.178C54.0273 22.866 54.218 22.4413 54.218 21.904C54.218 21.4533 54.062 21.0807 53.75 20.786C53.4553 20.4913 53.0827 20.2487 52.632 20.058C52.1987 19.8673 51.5747 19.6507 50.76 19.408C49.5813 19.044 48.6193 18.68 47.874 18.316C47.1287 17.952 46.4873 17.4147 45.95 16.704C45.4127 15.9933 45.144 15.066 45.144 13.922C45.144 12.2233 45.7593 10.8973 46.99 9.944C48.2207 8.97333 49.824 8.488 51.8 8.488C53.8107 8.488 55.4313 8.97333 56.662 9.944C57.8927 10.8973 58.5513 12.232 58.638 13.948H53.828C53.7933 13.3587 53.5767 12.8993 53.178 12.57C52.7793 12.2233 52.268 12.05 51.644 12.05C51.1067 12.05 50.6733 12.1973 50.344 12.492C50.0147 12.7693 49.85 13.1767 49.85 13.714C49.85 14.3033 50.1273 14.7627 50.682 15.092C51.2367 15.4213 52.1033 15.7767 53.282 16.158C54.4607 16.5567 55.414 16.938 56.142 17.302C56.8873 17.666 57.5287 18.1947 58.066 18.888C58.6033 19.5813 58.872 20.474 58.872 21.566C58.872 22.606 58.6033 23.5507 58.066 24.4C57.546 25.2493 56.7833 25.9253 55.778 26.428C54.7727 26.9307 53.5853 27.182 52.216 27.182ZM70.5261 12.336C72.1901 12.336 73.5248 12.8907 74.5301 14C75.5354 15.092 76.0381 16.6 76.0381 18.524V27H71.6181V19.122C71.6181 18.1513 71.3668 17.3973 70.8641 16.86C70.3614 16.3227 69.6854 16.054 68.8361 16.054C67.9868 16.054 67.3108 16.3227 66.8081 16.86C66.3054 17.3973 66.0541 18.1513 66.0541 19.122V27H61.6081V7.76H66.0541V14.442C66.5048 13.8007 67.1201 13.2893 67.9001 12.908C68.6801 12.5267 69.5554 12.336 70.5261 12.336ZM85.7316 27.208C84.3103 27.208 83.0276 26.9047 81.8836 26.298C80.757 25.6913 79.8643 24.8247 79.2056 23.698C78.5643 22.5713 78.2436 21.254 78.2436 19.746C78.2436 18.2553 78.573 16.9467 79.2316 15.82C79.8903 14.676 80.7916 13.8007 81.9356 13.194C83.0796 12.5873 84.3623 12.284 85.7836 12.284C87.205 12.284 88.4876 12.5873 89.6316 13.194C90.7756 13.8007 91.677 14.676 92.3356 15.82C92.9943 16.9467 93.3236 18.2553 93.3236 19.746C93.3236 21.2367 92.9856 22.554 92.3096 23.698C91.651 24.8247 90.741 25.6913 89.5796 26.298C88.4356 26.9047 87.153 27.208 85.7316 27.208ZM85.7316 23.36C86.581 23.36 87.3003 23.048 87.8896 22.424C88.4963 21.8 88.7996 20.9073 88.7996 19.746C88.7996 18.5847 88.505 17.692 87.9156 17.068C87.3436 16.444 86.633 16.132 85.7836 16.132C84.917 16.132 84.1976 16.444 83.6256 17.068C83.0536 17.6747 82.7676 18.5673 82.7676 19.746C82.7676 20.9073 83.045 21.8 83.5996 22.424C84.1716 23.048 84.8823 23.36 85.7316 23.36ZM100.128 14.546C100.562 13.87 101.16 13.324 101.922 12.908C102.685 12.492 103.578 12.284 104.6 12.284C105.796 12.284 106.88 12.5873 107.85 13.194C108.821 13.8007 109.584 14.6673 110.138 15.794C110.71 16.9207 110.996 18.2293 110.996 19.72C110.996 21.2107 110.71 22.528 110.138 23.672C109.584 24.7987 108.821 25.674 107.85 26.298C106.88 26.9047 105.796 27.208 104.6 27.208C103.595 27.208 102.702 27 101.922 26.584C101.16 26.168 100.562 25.6307 100.128 24.972V33.916H95.6823V12.492H100.128V14.546ZM106.472 19.72C106.472 18.6107 106.16 17.744 105.536 17.12C104.93 16.4787 104.176 16.158 103.274 16.158C102.39 16.158 101.636 16.4787 101.012 17.12C100.406 17.7613 100.102 18.6367 100.102 19.746C100.102 20.8553 100.406 21.7307 101.012 22.372C101.636 23.0133 102.39 23.334 103.274 23.334C104.158 23.334 104.912 23.0133 105.536 22.372C106.16 21.7133 106.472 20.8293 106.472 19.72Z" fill="#01040D"/>
<path d="M117.775 14.546C118.208 13.87 118.806 13.324 119.569 12.908C120.331 12.492 121.224 12.284 122.247 12.284C123.443 12.284 124.526 12.5873 125.497 13.194C126.467 13.8007 127.23 14.6673 127.785 15.794C128.357 16.9207 128.643 18.2293 128.643 19.72C128.643 21.2107 128.357 22.528 127.785 23.672C127.23 24.7987 126.467 25.674 125.497 26.298C124.526 26.9047 123.443 27.208 122.247 27.208C121.241 27.208 120.349 27 119.569 26.584C118.806 26.168 118.208 25.6307 117.775 24.972V33.916H113.329V12.492H117.775V14.546ZM124.119 19.72C124.119 18.6107 123.807 17.744 123.183 17.12C122.576 16.4787 121.822 16.158 120.921 16.158C120.037 16.158 119.283 16.4787 118.659 17.12C118.052 17.7613 117.749 18.6367 117.749 19.746C117.749 20.8553 118.052 21.7307 118.659 22.372C119.283 23.0133 120.037 23.334 120.921 23.334C121.805 23.334 122.559 23.0133 123.183 22.372C123.807 21.7133 124.119 20.8293 124.119 19.72ZM144.651 19.512C144.651 19.928 144.625 20.3613 144.573 20.812H134.511C134.581 21.7133 134.867 22.4067 135.369 22.892C135.889 23.36 136.522 23.594 137.267 23.594C138.377 23.594 139.148 23.126 139.581 22.19H144.313C144.071 23.1433 143.629 24.0013 142.987 24.764C142.363 25.5267 141.575 26.1247 140.621 26.558C139.668 26.9913 138.602 27.208 137.423 27.208C136.002 27.208 134.737 26.9047 133.627 26.298C132.518 25.6913 131.651 24.8247 131.027 23.698C130.403 22.5713 130.091 21.254 130.091 19.746C130.091 18.238 130.395 16.9207 131.001 15.794C131.625 14.6673 132.492 13.8007 133.601 13.194C134.711 12.5873 135.985 12.284 137.423 12.284C138.827 12.284 140.075 12.5787 141.167 13.168C142.259 13.7573 143.109 14.598 143.715 15.69C144.339 16.782 144.651 18.056 144.651 19.512ZM140.101 18.342C140.101 17.5793 139.841 16.9727 139.321 16.522C138.801 16.0713 138.151 15.846 137.371 15.846C136.626 15.846 135.993 16.0627 135.473 16.496C134.971 16.9293 134.659 17.5447 134.537 18.342H140.101ZM151.443 14.91C151.963 14.1127 152.613 13.4887 153.393 13.038C154.173 12.57 155.039 12.336 155.993 12.336V17.042H154.771C153.661 17.042 152.829 17.2847 152.275 17.77C151.72 18.238 151.443 19.07 151.443 20.266V27H146.997V12.492H151.443V14.91Z" fill="#07BFA5"/>
<defs>
<clipPath id="clip0_4161_3338">
<rect width="32" height="32" fill="white" transform="translate(0 1)"/>
</clipPath>
</defs>
</svg>
