<svg width="427" height="256" viewBox="0 0 427 256" fill="none" xmlns="http://www.w3.org/2000/svg">
<path fill-rule="evenodd" clip-rule="evenodd" d="M236.271 102.645C249.76 61.1028 284.797 96.0666 284.865 67.1789L285.954 67.4454C285.432 71.2524 284.229 78.6456 283.518 81.9882C264.725 83.9222 243.421 95.5412 236.279 102.638L236.271 102.645ZM312.192 46.3696C310.761 46.3694 309.376 46.8794 308.283 47.8091C307.191 48.7388 306.46 50.0281 306.222 51.4482C301.244 47.2072 293.792 45.6844 289.578 53.8466V53.7553C289.071 54.7299 286.552 60.3567 286.075 61.5064C286 61.6815 285.932 61.849 285.863 62.0241L286.62 61.8033C286.9 61.7196 289.442 55.1791 289.487 55.1791C293.762 56.5496 299.05 50.2833 298.929 51.1665C298.946 51.741 299.019 52.3123 299.149 52.872C299.905 56.6791 302.107 59.1003 303.809 60.8135L303.907 60.6384C304.899 61.7957 305.617 62.6866 305.534 63.2728C304.021 67.4606 302.273 72.0062 303.393 80.3131C317.011 82.0187 339.867 84.3181 356.806 101.13C351.427 57.943 327.981 86.7013 315.384 78.9426C305.443 72.8513 311.541 67.4606 311.133 59.9912C311.1 59.4609 311.014 58.9354 310.875 58.4227C311.705 58.603 312.564 58.6054 313.395 58.4299C314.226 58.2544 315.011 57.9048 315.699 57.4039C316.387 56.903 316.963 56.2619 317.389 55.5225C317.815 54.783 318.081 53.9616 318.171 53.1117C318.26 52.2619 318.171 51.4025 317.909 50.5895C317.647 49.7765 317.218 49.0282 316.65 48.393C316.082 47.7578 315.387 47.2501 314.611 46.9028C313.835 46.5555 312.996 46.3764 312.146 46.3772L312.192 46.3696Z" fill="#01040D"/>
<path fill-rule="evenodd" clip-rule="evenodd" d="M303.378 80.0923C304.407 78.699 303.454 75.0899 303.174 72.4021C302.992 70.6433 303.983 68.0317 304.755 65.9226C305.36 64.2932 306.941 67.9022 307.501 61.1105C307.713 58.5598 303.923 58.3085 303.907 60.8668C301.782 58.7273 298.778 55.4228 298.952 49.7808C294.337 56.4888 288.67 54.8213 289.646 55.0497C288.64 56.5725 286.976 61.712 286.666 61.8034C278.525 64.1409 276.649 65.2145 285.947 67.453C285.425 71.26 284.222 78.6533 283.511 81.9959C290.093 81.4705 301.592 82.5212 303.378 80.0923Z" fill="white"/>
<path fill-rule="evenodd" clip-rule="evenodd" d="M301.623 80.0847C350.36 79.5136 379.155 115.109 381.909 158.608C383.641 185.867 368.563 209.371 345.299 209.204C341.123 209.204 345.783 213.498 342.068 215.554C317.942 228.924 285.932 221.919 262.236 224.897C241.756 227.462 219.15 220.328 219.869 213.475C220.353 208.854 224.983 194.593 225.082 186.94C168.627 193.07 154.154 126.637 158.678 94.6047C166.668 81.0364 198.776 86.6023 200.622 92.3585C205.388 132.538 215.299 123.454 226.527 110.274C244.291 89.4119 271.739 80.4349 301.623 80.0847Z" fill="#07BFA5"/>
<path fill-rule="evenodd" clip-rule="evenodd" d="M283.601 146.358C280.893 145.375 272.351 153.05 280.447 157.603C277.36 157.855 270.982 163.763 289.23 171.865C295.744 174.56 303.786 178.466 309.831 183.941C312.177 180.21 320.877 166.976 322.874 148.489C315.036 140.396 305.799 134.784 300.087 133.855C296.909 133.025 295.245 135.911 295.283 137.974C283.427 134.388 279.304 142.642 283.601 146.358Z" fill="white"/>
<path d="M298.18 60.3454C298.571 59.7341 298.476 58.9705 297.967 58.6401C297.458 58.3096 296.728 58.5373 296.336 59.1486C295.944 59.76 296.039 60.5235 296.548 60.854C297.057 61.1845 297.788 60.9568 298.18 60.3454Z" fill="#01040D"/>
<path d="M290.881 57.8582C291.157 57.427 291.091 56.8891 290.732 56.6566C290.374 56.4241 289.86 56.5852 289.584 57.0163C289.307 57.4474 289.374 57.9854 289.732 58.2179C290.09 58.4504 290.604 58.2893 290.881 57.8582Z" fill="#01040D"/>
<path d="M291.167 101.381C291.593 101.381 291.939 100.965 291.939 100.452C291.939 99.9393 291.593 99.5234 291.167 99.5234C290.741 99.5234 290.395 99.9393 290.395 100.452C290.395 100.965 290.741 101.381 291.167 101.381Z" fill="#01040D"/>
<path d="M287.838 119.731C288.264 119.731 288.61 119.315 288.61 118.802C288.61 118.289 288.264 117.873 287.838 117.873C287.412 117.873 287.066 118.289 287.066 118.802C287.066 119.315 287.412 119.731 287.838 119.731Z" fill="#01040D"/>
<path fill-rule="evenodd" clip-rule="evenodd" d="M178.682 56.1537C173.386 38.3825 170.715 30.2659 166.009 31.8801C158.005 34.5678 162.741 47.2833 167.84 63.1967C158.966 51.9888 150.893 45.9813 147.035 49.8569C141.648 55.2705 146.974 58.2323 159.783 75.1965C159.526 82.0491 159.405 86.4272 165.972 90.7215C167.084 91.4829 166.463 93.4093 166.138 95.3661C171.926 95.3661 181.057 97.361 193.707 89.2749C194.842 88.1784 213.378 62.4581 207.166 55.9405C205.653 54.3187 198.087 53.0471 191.566 65.8845C194.736 42.8367 192.073 31.4156 187.405 30.8978C184.038 30.5171 180.762 39.7149 178.682 56.1537Z" fill="white"/>
<path d="M234.455 95.9981C244.843 74.0468 260.473 81.5314 276.921 79.369C281.763 78.7294 284.751 73.8792 285.833 67.1332M286.673 61.6206C287.301 57.7146 287.853 56.7324 289.102 53.8923C291.969 47.3823 299.807 46.1336 306.813 50.9685C308.818 45.4255 315.536 45.8443 317.193 50.3137C319.387 56.2451 314.348 60.4176 310.913 58.4303C313.879 65.0469 305.504 73.5671 315.052 79.1482C326.597 85.8942 351.851 60.1663 360.491 96.9727M292.703 59.2374C291.409 61.2932 270.717 64.7195 284.6 67.0799C287.452 67.5672 293.55 65.7322 295.949 63.7373M343.233 120.987C341.387 125.982 334.389 153.233 336.992 157.535M334.155 156.819C334.866 176.806 328.443 187.116 321.104 196.222M286.87 88.049C286.87 100.232 278.011 126.827 278.434 139.825C278.896 153.842 273.539 167.03 271.209 180.012C270.513 183.895 269.446 193.565 268.243 203.509M230.082 173.136C227.056 177.705 223.084 201.59 221.662 207.78M163.71 90.2799C162.703 90.5845 158.232 92.0845 158.414 96.2874C156.855 131.525 169.603 187.207 219.619 187.923C220.762 187.923 224.832 187.976 225.77 187.161M201.265 103.072C188.57 113.366 168.529 114.097 158.671 110.008M194.895 88.9322C180.384 98.3052 166.902 95.5717 163.157 95.0692M190.931 65.4809C198.542 38.1312 184.47 7.65213 178.644 56.2146C177.827 63.014 173.348 22.1341 163.316 33.6161C159.443 38.0551 165.586 56.7857 167.772 63.6231C168.09 64.5901 154.472 44.3138 146.952 49.8569C139.432 55.3999 159.685 74.0087 159.722 75.4858C159.919 83.7547 159.518 86.5719 166.721 91.3687M193.056 89.6175C195.326 88.1861 212.379 61.3008 207.302 56.6105C199.313 49.2325 188.956 70.7499 188.26 70.727C182.374 70.5747 171.797 79.8639 173.885 86.412M300.057 162.941C278.638 149.434 266.11 162.301 289.079 171.788C295.669 174.507 303.855 178.466 309.96 184.047C312.109 186.012 318.592 193.603 321.573 196.039C333.497 205.793 345.586 208.915 347.72 208.915M322.61 148.665C320.582 168.004 311.511 181.177 309.574 184.321M306.366 154.626C277.337 135.934 272.669 155.03 280.348 157.436M312.01 146.319C306.117 137.525 275.007 132.271 283.208 145.665M295.608 137.183C296.917 129.568 309.43 134.731 315.846 142.611C317.942 145.185 321.013 146.654 323.185 148.375C333.776 156.789 345.314 166.177 353.318 168.507M277.458 82.9933C276.676 85.373 276.099 87.816 275.733 90.2952C276.921 89.2368 288.383 83.7623 288.428 83.8537C294.027 95.092 295.759 96.4016 303.204 83.2598C303.385 83.0148 303.507 82.7306 303.56 82.4298M290.653 70.5519C289.457 75.265 293.981 79.1025 298.475 68.1002M290.153 69.6915C294.352 71.8463 297.87 68.9301 300.806 64.3617M166.577 91.2317C166.388 92.1073 166.403 94.4753 166.252 94.9778L166.577 91.2317Z" stroke="#01040D" stroke-width="1.42" stroke-linecap="round" stroke-linejoin="round"/>
<path fill-rule="evenodd" clip-rule="evenodd" d="M78.4996 31.47C37.5227 30.1564 0.884941 22.4708 0.0262451 26.1465C-1.02709 30.6864 29.8974 43.4305 43.8999 58.4099L51.9762 51.8299L58.4762 54.8492L63.6385 57.4766L62.4134 43.972L78.4996 31.47Z" fill="#FF914D"/>
<path d="M126.976 48.7548C121.332 46.2313 96.1318 37.8543 81.8088 35.7687" stroke="#01221D" stroke-width="1.42" stroke-linecap="round" stroke-linejoin="round"/>
<path d="M88.861 53.2023C81.9914 51.036 74.2517 47.8558 67.6684 46.1158" stroke="#01221D" stroke-width="1.42" stroke-linecap="round" stroke-linejoin="round"/>
<path d="M77.3317 32.2194C65.8074 40.1026 54.6838 48.5632 44.0028 57.5692M63.5009 57.0622L62.0698 43.8688L35.2155 36.6384L8.3612 29.4079L35.9311 43.2351L63.5009 57.0622Z" stroke="#01221D" stroke-width="1.42" stroke-linecap="round" stroke-linejoin="round"/>
<path d="M55.5895 63.1804C52.7034 61.3658 49.6328 59.8671 46.4301 58.7097" stroke="#01221D" stroke-width="1.42" stroke-linecap="round" stroke-linejoin="round"/>
</svg>
